<mxfile host="app.diagrams.net" modified="2021-12-06T11:20:40.719Z" agent="5.0 (Macintosh; Intel Mac OS X 10_15_7) AppleWebKit/537.36 (KHTML, like Gecko) Chrome/96.0.4664.55 Safari/537.36" etag="Vbs0oaJqVikTjhpqDqWT" version="14.7.6" type="github">
  <diagram id="KDS2nFeyZRmubfXYOoKi" name="Page-1">
    <mxGraphModel dx="994" dy="741" grid="1" gridSize="10" guides="1" tooltips="1" connect="1" arrows="1" fold="1" page="1" pageScale="1" pageWidth="827" pageHeight="1169" math="0" shadow="0">
      <root>
        <mxCell id="0" />
        <mxCell id="1" parent="0" />
        <mxCell id="Os50jHRekB9I_l5KsiSY-6" value="" style="edgeStyle=orthogonalEdgeStyle;rounded=0;orthogonalLoop=1;jettySize=auto;html=1;" edge="1" parent="1" source="Os50jHRekB9I_l5KsiSY-3" target="Os50jHRekB9I_l5KsiSY-5">
          <mxGeometry relative="1" as="geometry" />
        </mxCell>
        <mxCell id="Os50jHRekB9I_l5KsiSY-3" value="Initial" style="rounded=0;whiteSpace=wrap;html=1;" vertex="1" parent="1">
          <mxGeometry x="50" y="40" width="120" height="60" as="geometry" />
        </mxCell>
        <mxCell id="Os50jHRekB9I_l5KsiSY-8" value="" style="edgeStyle=orthogonalEdgeStyle;rounded=0;orthogonalLoop=1;jettySize=auto;html=1;startArrow=none;startFill=0;" edge="1" parent="1" source="Os50jHRekB9I_l5KsiSY-5" target="Os50jHRekB9I_l5KsiSY-7">
          <mxGeometry relative="1" as="geometry">
            <Array as="points">
              <mxPoint x="390" y="70" />
              <mxPoint x="390" y="70" />
            </Array>
          </mxGeometry>
        </mxCell>
        <mxCell id="Os50jHRekB9I_l5KsiSY-5" value="Registered" style="rounded=0;whiteSpace=wrap;html=1;" vertex="1" parent="1">
          <mxGeometry x="240" y="40" width="120" height="60" as="geometry" />
        </mxCell>
        <mxCell id="Os50jHRekB9I_l5KsiSY-10" value="" style="edgeStyle=orthogonalEdgeStyle;rounded=0;orthogonalLoop=1;jettySize=auto;html=1;" edge="1" parent="1" source="Os50jHRekB9I_l5KsiSY-7" target="Os50jHRekB9I_l5KsiSY-9">
          <mxGeometry relative="1" as="geometry" />
        </mxCell>
        <mxCell id="Os50jHRekB9I_l5KsiSY-37" style="edgeStyle=orthogonalEdgeStyle;rounded=0;orthogonalLoop=1;jettySize=auto;html=1;exitX=0.5;exitY=1;exitDx=0;exitDy=0;entryX=1;entryY=1;entryDx=0;entryDy=0;startArrow=none;startFill=0;" edge="1" parent="1" source="Os50jHRekB9I_l5KsiSY-7" target="Os50jHRekB9I_l5KsiSY-5">
          <mxGeometry relative="1" as="geometry" />
        </mxCell>
        <mxCell id="Os50jHRekB9I_l5KsiSY-7" value="ApplicationFilled" style="rounded=0;whiteSpace=wrap;html=1;" vertex="1" parent="1">
          <mxGeometry x="420" y="40" width="120" height="60" as="geometry" />
        </mxCell>
        <mxCell id="Os50jHRekB9I_l5KsiSY-12" value="" style="edgeStyle=orthogonalEdgeStyle;rounded=0;orthogonalLoop=1;jettySize=auto;html=1;" edge="1" parent="1" source="Os50jHRekB9I_l5KsiSY-9" target="Os50jHRekB9I_l5KsiSY-11">
          <mxGeometry relative="1" as="geometry" />
        </mxCell>
        <mxCell id="Os50jHRekB9I_l5KsiSY-9" value="Documents" style="rounded=0;whiteSpace=wrap;html=1;" vertex="1" parent="1">
          <mxGeometry x="610" y="40" width="120" height="60" as="geometry" />
        </mxCell>
        <mxCell id="Os50jHRekB9I_l5KsiSY-14" value="" style="edgeStyle=orthogonalEdgeStyle;rounded=0;orthogonalLoop=1;jettySize=auto;html=1;" edge="1" parent="1" source="Os50jHRekB9I_l5KsiSY-11" target="Os50jHRekB9I_l5KsiSY-13">
          <mxGeometry relative="1" as="geometry" />
        </mxCell>
        <mxCell id="Os50jHRekB9I_l5KsiSY-38" style="edgeStyle=orthogonalEdgeStyle;rounded=0;orthogonalLoop=1;jettySize=auto;html=1;exitX=1;exitY=0.5;exitDx=0;exitDy=0;entryX=1;entryY=0.5;entryDx=0;entryDy=0;startArrow=none;startFill=0;" edge="1" parent="1" source="Os50jHRekB9I_l5KsiSY-11" target="Os50jHRekB9I_l5KsiSY-9">
          <mxGeometry relative="1" as="geometry" />
        </mxCell>
        <mxCell id="Os50jHRekB9I_l5KsiSY-11" value="DocumentsFilled" style="rounded=0;whiteSpace=wrap;html=1;" vertex="1" parent="1">
          <mxGeometry x="610" y="150" width="120" height="60" as="geometry" />
        </mxCell>
        <mxCell id="Os50jHRekB9I_l5KsiSY-16" value="" style="edgeStyle=orthogonalEdgeStyle;rounded=0;orthogonalLoop=1;jettySize=auto;html=1;entryX=0.5;entryY=0;entryDx=0;entryDy=0;" edge="1" parent="1" source="Os50jHRekB9I_l5KsiSY-13" target="Os50jHRekB9I_l5KsiSY-17">
          <mxGeometry relative="1" as="geometry">
            <mxPoint x="670" y="410" as="targetPoint" />
          </mxGeometry>
        </mxCell>
        <mxCell id="Os50jHRekB9I_l5KsiSY-40" style="edgeStyle=orthogonalEdgeStyle;rounded=0;orthogonalLoop=1;jettySize=auto;html=1;exitX=1;exitY=0.5;exitDx=0;exitDy=0;entryX=1;entryY=0.5;entryDx=0;entryDy=0;startArrow=none;startFill=0;" edge="1" parent="1" source="Os50jHRekB9I_l5KsiSY-13" target="Os50jHRekB9I_l5KsiSY-19">
          <mxGeometry relative="1" as="geometry" />
        </mxCell>
        <mxCell id="Os50jHRekB9I_l5KsiSY-13" value="Manual" style="rounded=0;whiteSpace=wrap;html=1;" vertex="1" parent="1">
          <mxGeometry x="610" y="270" width="120" height="60" as="geometry" />
        </mxCell>
        <mxCell id="Os50jHRekB9I_l5KsiSY-20" value="" style="edgeStyle=orthogonalEdgeStyle;rounded=0;orthogonalLoop=1;jettySize=auto;html=1;" edge="1" parent="1" source="Os50jHRekB9I_l5KsiSY-17" target="Os50jHRekB9I_l5KsiSY-19">
          <mxGeometry relative="1" as="geometry" />
        </mxCell>
        <mxCell id="Os50jHRekB9I_l5KsiSY-17" value="Video" style="rounded=0;whiteSpace=wrap;html=1;" vertex="1" parent="1">
          <mxGeometry x="610" y="390" width="120" height="60" as="geometry" />
        </mxCell>
        <mxCell id="Os50jHRekB9I_l5KsiSY-22" value="" style="edgeStyle=orthogonalEdgeStyle;rounded=0;orthogonalLoop=1;jettySize=auto;html=1;" edge="1" parent="1" source="Os50jHRekB9I_l5KsiSY-19" target="Os50jHRekB9I_l5KsiSY-21">
          <mxGeometry relative="1" as="geometry" />
        </mxCell>
        <mxCell id="Os50jHRekB9I_l5KsiSY-41" style="rounded=0;orthogonalLoop=1;jettySize=auto;html=1;exitX=0;exitY=0.75;exitDx=0;exitDy=0;entryX=0.75;entryY=0;entryDx=0;entryDy=0;startArrow=none;startFill=0;" edge="1" parent="1" source="Os50jHRekB9I_l5KsiSY-19" target="Os50jHRekB9I_l5KsiSY-23">
          <mxGeometry relative="1" as="geometry" />
        </mxCell>
        <mxCell id="Os50jHRekB9I_l5KsiSY-42" style="rounded=0;orthogonalLoop=1;jettySize=auto;html=1;exitX=0;exitY=0.5;exitDx=0;exitDy=0;entryX=1;entryY=0.75;entryDx=0;entryDy=0;startArrow=none;startFill=0;" edge="1" parent="1" source="Os50jHRekB9I_l5KsiSY-19" target="Os50jHRekB9I_l5KsiSY-25">
          <mxGeometry relative="1" as="geometry" />
        </mxCell>
        <mxCell id="Os50jHRekB9I_l5KsiSY-19" value="PaymentCreated" style="rounded=0;whiteSpace=wrap;html=1;" vertex="1" parent="1">
          <mxGeometry x="610" y="510" width="120" height="60" as="geometry" />
        </mxCell>
        <mxCell id="Os50jHRekB9I_l5KsiSY-24" value="" style="edgeStyle=orthogonalEdgeStyle;rounded=0;orthogonalLoop=1;jettySize=auto;html=1;" edge="1" parent="1" source="Os50jHRekB9I_l5KsiSY-21" target="Os50jHRekB9I_l5KsiSY-23">
          <mxGeometry relative="1" as="geometry" />
        </mxCell>
        <mxCell id="Os50jHRekB9I_l5KsiSY-46" style="edgeStyle=orthogonalEdgeStyle;rounded=0;orthogonalLoop=1;jettySize=auto;html=1;exitX=0.75;exitY=0;exitDx=0;exitDy=0;entryX=0.75;entryY=1;entryDx=0;entryDy=0;startArrow=none;startFill=0;" edge="1" parent="1" source="Os50jHRekB9I_l5KsiSY-21" target="Os50jHRekB9I_l5KsiSY-19">
          <mxGeometry relative="1" as="geometry" />
        </mxCell>
        <mxCell id="Os50jHRekB9I_l5KsiSY-47" style="rounded=0;orthogonalLoop=1;jettySize=auto;html=1;exitX=0;exitY=0.25;exitDx=0;exitDy=0;entryX=0.5;entryY=1;entryDx=0;entryDy=0;startArrow=none;startFill=0;" edge="1" parent="1" source="Os50jHRekB9I_l5KsiSY-21" target="Os50jHRekB9I_l5KsiSY-25">
          <mxGeometry relative="1" as="geometry" />
        </mxCell>
        <mxCell id="Os50jHRekB9I_l5KsiSY-21" value="PaymentPending" style="rounded=0;whiteSpace=wrap;html=1;" vertex="1" parent="1">
          <mxGeometry x="610" y="630" width="120" height="60" as="geometry" />
        </mxCell>
        <mxCell id="Os50jHRekB9I_l5KsiSY-45" style="edgeStyle=orthogonalEdgeStyle;rounded=0;orthogonalLoop=1;jettySize=auto;html=1;exitX=0;exitY=0.5;exitDx=0;exitDy=0;entryX=1;entryY=0.5;entryDx=0;entryDy=0;startArrow=none;startFill=0;" edge="1" parent="1" source="Os50jHRekB9I_l5KsiSY-23" target="Os50jHRekB9I_l5KsiSY-27">
          <mxGeometry relative="1" as="geometry" />
        </mxCell>
        <mxCell id="Os50jHRekB9I_l5KsiSY-23" value="PaymentSuccessful" style="rounded=0;whiteSpace=wrap;html=1;" vertex="1" parent="1">
          <mxGeometry x="340" y="630" width="120" height="60" as="geometry" />
        </mxCell>
        <mxCell id="Os50jHRekB9I_l5KsiSY-44" style="rounded=0;orthogonalLoop=1;jettySize=auto;html=1;exitX=1;exitY=0.5;exitDx=0;exitDy=0;entryX=0;entryY=0.25;entryDx=0;entryDy=0;startArrow=none;startFill=0;" edge="1" parent="1" source="Os50jHRekB9I_l5KsiSY-25" target="Os50jHRekB9I_l5KsiSY-19">
          <mxGeometry relative="1" as="geometry" />
        </mxCell>
        <mxCell id="Os50jHRekB9I_l5KsiSY-25" value="PaymentError" style="rounded=0;whiteSpace=wrap;html=1;" vertex="1" parent="1">
          <mxGeometry x="340" y="510" width="120" height="60" as="geometry" />
        </mxCell>
        <mxCell id="Os50jHRekB9I_l5KsiSY-30" value="" style="edgeStyle=orthogonalEdgeStyle;rounded=0;orthogonalLoop=1;jettySize=auto;html=1;" edge="1" parent="1" source="Os50jHRekB9I_l5KsiSY-27" target="Os50jHRekB9I_l5KsiSY-29">
          <mxGeometry relative="1" as="geometry" />
        </mxCell>
        <mxCell id="Os50jHRekB9I_l5KsiSY-48" style="edgeStyle=none;rounded=0;orthogonalLoop=1;jettySize=auto;html=1;exitX=1;exitY=0.75;exitDx=0;exitDy=0;entryX=0;entryY=0.75;entryDx=0;entryDy=0;startArrow=none;startFill=0;" edge="1" parent="1" source="Os50jHRekB9I_l5KsiSY-27" target="Os50jHRekB9I_l5KsiSY-23">
          <mxGeometry relative="1" as="geometry" />
        </mxCell>
        <mxCell id="Os50jHRekB9I_l5KsiSY-27" value="TravelPlanned" style="rounded=0;whiteSpace=wrap;html=1;" vertex="1" parent="1">
          <mxGeometry x="50" y="630" width="120" height="60" as="geometry" />
        </mxCell>
        <mxCell id="Os50jHRekB9I_l5KsiSY-32" value="" style="edgeStyle=orthogonalEdgeStyle;rounded=0;orthogonalLoop=1;jettySize=auto;html=1;" edge="1" parent="1" source="Os50jHRekB9I_l5KsiSY-29" target="Os50jHRekB9I_l5KsiSY-31">
          <mxGeometry relative="1" as="geometry" />
        </mxCell>
        <mxCell id="Os50jHRekB9I_l5KsiSY-49" style="edgeStyle=none;rounded=0;orthogonalLoop=1;jettySize=auto;html=1;exitX=1;exitY=0.75;exitDx=0;exitDy=0;entryX=0.25;entryY=0;entryDx=0;entryDy=0;startArrow=none;startFill=0;" edge="1" parent="1" source="Os50jHRekB9I_l5KsiSY-29" target="Os50jHRekB9I_l5KsiSY-23">
          <mxGeometry relative="1" as="geometry" />
        </mxCell>
        <mxCell id="Os50jHRekB9I_l5KsiSY-29" value="TravelAccepted" style="rounded=0;whiteSpace=wrap;html=1;" vertex="1" parent="1">
          <mxGeometry x="50" y="510" width="120" height="60" as="geometry" />
        </mxCell>
        <mxCell id="Os50jHRekB9I_l5KsiSY-34" value="" style="edgeStyle=orthogonalEdgeStyle;rounded=0;orthogonalLoop=1;jettySize=auto;html=1;" edge="1" parent="1" source="Os50jHRekB9I_l5KsiSY-31" target="Os50jHRekB9I_l5KsiSY-33">
          <mxGeometry relative="1" as="geometry" />
        </mxCell>
        <mxCell id="Os50jHRekB9I_l5KsiSY-31" value="Employee" style="rounded=0;whiteSpace=wrap;html=1;" vertex="1" parent="1">
          <mxGeometry x="50" y="390" width="120" height="60" as="geometry" />
        </mxCell>
        <mxCell id="Os50jHRekB9I_l5KsiSY-36" style="edgeStyle=orthogonalEdgeStyle;rounded=0;orthogonalLoop=1;jettySize=auto;html=1;exitX=0.5;exitY=0;exitDx=0;exitDy=0;" edge="1" parent="1" source="Os50jHRekB9I_l5KsiSY-33" target="Os50jHRekB9I_l5KsiSY-5">
          <mxGeometry relative="1" as="geometry" />
        </mxCell>
        <mxCell id="Os50jHRekB9I_l5KsiSY-51" style="edgeStyle=none;rounded=0;orthogonalLoop=1;jettySize=auto;html=1;exitX=0.25;exitY=1;exitDx=0;exitDy=0;entryX=0.25;entryY=0;entryDx=0;entryDy=0;startArrow=none;startFill=0;" edge="1" parent="1" source="Os50jHRekB9I_l5KsiSY-33" target="Os50jHRekB9I_l5KsiSY-31">
          <mxGeometry relative="1" as="geometry" />
        </mxCell>
        <mxCell id="Os50jHRekB9I_l5KsiSY-33" value="Left" style="rounded=0;whiteSpace=wrap;html=1;" vertex="1" parent="1">
          <mxGeometry x="50" y="260" width="120" height="60" as="geometry" />
        </mxCell>
      </root>
    </mxGraphModel>
  </diagram>
</mxfile>
